<svg width="27" height="16" viewBox="0 0 27 16" fill="none" xmlns="http://www.w3.org/2000/svg">
<path d="M7.20469 2.7875C7.52812 3.55156 8.17031 4.25 9 4.25H18C18.8297 4.25 19.4719 3.55156 19.7953 2.7875C20.3625 1.44219 21.6984 0.5 23.25 0.5C25.3219 0.5 27 2.17812 27 4.25C27 5.675 26.2031 6.91719 25.0312 7.55C24.8625 7.63906 24.75 7.80781 24.75 8C24.75 8.19219 24.8625 8.36094 25.0312 8.45C26.2031 9.08281 27 10.325 27 11.75C27 13.8219 25.3219 15.5 23.25 15.5C21.6984 15.5 20.3625 14.5578 19.7953 13.2125C19.4719 12.4484 18.8297 11.75 18 11.75H9C8.17031 11.75 7.52812 12.4484 7.20469 13.2125C6.6375 14.5578 5.30156 15.5 3.75 15.5C1.67812 15.5 0 13.8219 0 11.75C0 10.325 0.796875 9.08281 1.96875 8.45C2.1375 8.36094 2.25 8.19219 2.25 8C2.25 7.80781 2.1375 7.63906 1.96875 7.55C0.796875 6.91719 0 5.675 0 4.25C0 2.17812 1.67812 0.5 3.75 0.5C5.30156 0.5 6.6375 1.44219 7.20469 2.7875Z" fill="#8B5CF6"/>
</svg>
