<svg width="19" height="22" viewBox="0 0 19 22" fill="none" xmlns="http://www.w3.org/2000/svg">
<path d="M7.72344 1.44218C6.93594 0.8328 5.97031 0.499988 4.97656 0.499988C2.50156 0.499988 0.5 2.50155 0.5 4.97655V5.26718C0.5 6.0078 0.673438 6.73436 1.00156 7.39999L2.10312 9.6078C2.31406 10.025 2.45937 10.4703 2.54375 10.9297L4.26406 20.5765C4.35781 21.1015 4.80781 21.4859 5.3375 21.5047C5.86719 21.5234 6.34062 21.1578 6.4625 20.6422L7.81719 14.9562C8.00938 14.1734 8.70312 13.625 9.5 13.625C10.2969 13.625 10.9906 14.1734 11.1781 14.9515L12.5328 20.6375C12.6547 21.1578 13.1281 21.5187 13.6578 21.5C14.1875 21.4812 14.6375 21.0969 14.7313 20.5719L16.4516 10.925C16.5359 10.4656 16.6813 10.0203 16.8922 9.60311L17.9938 7.3953C18.3266 6.73436 18.4953 6.00311 18.4953 5.26249V5.16405C18.4953 2.58593 16.4047 0.4953 13.8266 0.4953C12.6969 0.4953 11.6047 0.9078 10.7516 1.64843L10.6016 1.77968L11.5156 2.49218C11.8438 2.7453 11.9 3.21874 11.6469 3.54686C11.3937 3.87499 10.9203 3.93124 10.5922 3.67811L9.44844 2.78749L7.71406 1.43749L7.72344 1.44218Z" fill="#3B82F6"/>
</svg>
