<svg width="27" height="24" viewBox="0 0 27 24" fill="none" xmlns="http://www.w3.org/2000/svg">
<g clip-path="url(#clip0_7_2680)">
<path d="M6.675 1.02657C6.9375 1.81407 6.51094 2.66251 5.72812 2.92501L4.5 3.33282V9.00001C4.5 11.4844 6.51562 13.5 9 13.5C11.4844 13.5 13.5 11.4844 13.5 9.00001V3.33282L12.2766 2.92501C11.4891 2.66251 11.0672 1.81407 11.3297 1.02657C11.5922 0.239073 12.4406 -0.182802 13.2281 0.0796977L14.4516 0.48751C15.675 0.895323 16.5 2.03907 16.5 3.33282V9.00001C16.5 12.6188 13.9406 15.6375 10.5328 16.3453C10.8281 18.9656 13.05 21 15.75 21C18.6516 21 21 18.6516 21 15.75V12.4359C19.6734 11.8594 18.75 10.5375 18.75 9.00001C18.75 6.92814 20.4281 5.25001 22.5 5.25001C24.5719 5.25001 26.25 6.92814 26.25 9.00001C26.25 10.5375 25.3266 11.8594 24 12.4359V15.75C24 20.3063 20.3062 24 15.75 24C11.3953 24 7.83281 20.6297 7.52344 16.3547C4.0875 15.6656 1.5 12.6375 1.5 9.00001V3.33282C1.5 2.04376 2.325 0.895323 3.55313 0.48751L4.77656 0.0796977C5.56406 -0.182802 6.4125 0.24376 6.675 1.02657ZM22.5 10.5C22.8978 10.5 23.2794 10.342 23.5607 10.0607C23.842 9.77937 24 9.39784 24 9.00001C24 8.60219 23.842 8.22066 23.5607 7.93935C23.2794 7.65805 22.8978 7.50001 22.5 7.50001C22.1022 7.50001 21.7206 7.65805 21.4393 7.93935C21.158 8.22066 21 8.60219 21 9.00001C21 9.39784 21.158 9.77937 21.4393 10.0607C21.7206 10.342 22.1022 10.5 22.5 10.5Z" fill="#BFDBFE"/>
</g>
<defs>
<clipPath id="clip0_7_2680">
<path d="M0 0H27V24H0V0Z" fill="white"/>
</clipPath>
</defs>
</svg>
