<svg width="27" height="24" viewBox="0 0 27 24" fill="none" xmlns="http://www.w3.org/2000/svg">
<path d="M27 24H0V0H27V24Z" stroke="#E5E7EB"/>
<path d="M5.25 4.5C4.00781 4.5 3 5.50781 3 6.75V12H7.5V6.75C7.5 5.50781 6.49219 4.5 5.25 4.5ZM0 6.75C0 3.84844 2.34844 1.5 5.25 1.5C8.15156 1.5 10.5 3.84844 10.5 6.75V17.25C10.5 20.1516 8.15156 22.5 5.25 22.5C2.34844 22.5 0 20.1516 0 17.25V6.75ZM26.0109 18.7219C25.6781 19.2984 24.9 19.3359 24.4266 18.8672L15.6328 10.0734C15.1641 9.60469 15.1969 8.82188 15.7781 8.48906C16.875 7.86094 18.1453 7.5 19.5 7.5C23.6437 7.5 27 10.8562 27 15C27 16.3547 26.6391 17.625 26.0109 18.7219ZM23.2219 21.5109C22.125 22.1391 20.8547 22.5 19.5 22.5C15.3562 22.5 12 19.1437 12 15C12 13.6453 12.3609 12.375 12.9891 11.2781C13.3219 10.7016 14.1 10.6641 14.5734 11.1328L23.3672 19.9266C23.8359 20.3953 23.8031 21.1781 23.2219 21.5109Z" fill="#BFDBFE"/>
</svg>
