<svg width="60" height="60" viewBox="0 0 60 60" fill="none" xmlns="http://www.w3.org/2000/svg">
<path d="M60 60H0V0H60V60Z" stroke="#E5E7EB"/>
<path d="M49.0312 18.5039C53.168 17.5312 56.25 13.8164 56.25 9.375C56.25 4.19531 52.0547 0 46.875 0C41.7891 0 37.6523 4.04297 37.5 9.08203L15.9609 17.707C14.2617 16.0312 11.9414 15 9.375 15C4.19531 15 0 19.1953 0 24.375C0 29.5547 4.19531 33.75 9.375 33.75C10.8047 33.75 12.1641 33.4336 13.3711 32.8594L30.4336 47.7891C30.1523 48.6797 30 49.6406 30 50.625C30 55.8047 34.1953 60 39.375 60C44.5547 60 48.75 55.8047 48.75 50.625C48.75 47.3789 47.1094 44.5195 44.6016 42.8438L49.0312 18.5039ZM18.3164 27.2109C18.5742 26.4023 18.7266 25.5469 18.75 24.668L40.2891 16.0547C40.7109 16.4648 41.1562 16.8398 41.6484 17.168L37.2188 41.4961C36.5742 41.6484 35.9531 41.8594 35.3672 42.1406L18.3164 27.2109Z" fill="#3B82F6"/>
</svg>
