<svg width="27" height="22" viewBox="0 0 27 22" fill="none" xmlns="http://www.w3.org/2000/svg">
<path d="M5.25 3.5C4.00781 3.5 3 4.50781 3 5.75V11H7.5V5.75C7.5 4.50781 6.49219 3.5 5.25 3.5ZM0 5.75C0 2.84844 2.34844 0.5 5.25 0.5C8.15156 0.5 10.5 2.84844 10.5 5.75V16.25C10.5 19.1516 8.15156 21.5 5.25 21.5C2.34844 21.5 0 19.1516 0 16.25V5.75ZM26.0109 17.7219C25.6781 18.2984 24.9 18.3359 24.4266 17.8672L15.6328 9.07344C15.1641 8.60469 15.1969 7.82188 15.7781 7.48906C16.875 6.86094 18.1453 6.5 19.5 6.5C23.6437 6.5 27 9.85625 27 14C27 15.3547 26.6391 16.625 26.0109 17.7219ZM23.2219 20.5109C22.125 21.1391 20.8547 21.5 19.5 21.5C15.3562 21.5 12 18.1437 12 14C12 12.6453 12.3609 11.375 12.9891 10.2781C13.3219 9.70156 14.1 9.66406 14.5734 10.1328L23.3672 18.9266C23.8359 19.3953 23.8031 20.1781 23.2219 20.5109Z" fill="#BFDBFE"/>
</svg>
