<svg width="24" height="22" viewBox="0 0 24 22" fill="none" xmlns="http://www.w3.org/2000/svg">
<path d="M10.7016 20.9891L2.23125 13.0813C2.03437 12.8984 1.84688 12.7016 1.67344 12.5H5.75156C6.81094 12.5 7.76719 11.8625 8.175 10.8828L8.66719 9.70157L10.9781 14.8344C11.1562 15.2328 11.5453 15.4906 11.9813 15.4953C12.4172 15.5 12.8156 15.2609 13.0125 14.8719L15 10.8922L15.0797 11.0516C15.525 11.9422 16.4344 12.5047 17.4281 12.5047H22.3266C22.1531 12.7063 21.9656 12.9031 21.7687 13.0859L13.2984 20.9891C12.9469 21.3172 12.4828 21.5 12 21.5C11.5172 21.5 11.0531 21.3172 10.7016 20.9891ZM23.6109 10.25H17.4234C17.2828 10.25 17.1516 10.1703 17.0859 10.0438L15.9984 7.87344C15.8062 7.49376 15.4172 7.25001 14.9906 7.25001C14.5641 7.25001 14.175 7.48907 13.9828 7.87344L12.0422 11.7547L9.65156 6.41563C9.46875 6.00782 9.05625 5.74532 8.61094 5.75469C8.16562 5.76407 7.7625 6.03126 7.58906 6.44844L6.09844 10.025C6.04219 10.1656 5.90156 10.2547 5.75156 10.2547H0.75C0.628125 10.2547 0.515625 10.2734 0.407812 10.3063C0.140625 9.55626 0 8.75938 0 7.94844V7.67657C0 4.40001 2.36719 1.60626 5.59688 1.06719C7.73438 0.710944 9.90938 1.40938 11.4375 2.93751L12 3.50001L12.5625 2.93751C14.0906 1.40938 16.2656 0.710944 18.4031 1.06719C21.6328 1.60626 24 4.40001 24 7.67657V7.94844C24 8.74063 23.8688 9.51876 23.6109 10.25Z" fill="#BFDBFE"/>
</svg>
