<svg width="26" height="24" viewBox="0 0 26 24" fill="none" xmlns="http://www.w3.org/2000/svg">
<path d="M5.675 1.02657C5.9375 1.81407 5.51094 2.66251 4.72812 2.92501L3.5 3.33282V9.00001C3.5 11.4844 5.51562 13.5 8 13.5C10.4844 13.5 12.5 11.4844 12.5 9.00001V3.33282L11.2766 2.92501C10.4891 2.66251 10.0672 1.81407 10.3297 1.02657C10.5922 0.239073 11.4406 -0.182802 12.2281 0.0796977L13.4516 0.48751C14.675 0.895323 15.5 2.03907 15.5 3.33282V9.00001C15.5 12.6188 12.9406 15.6375 9.53281 16.3453C9.82812 18.9656 12.05 21 14.75 21C17.6516 21 20 18.6516 20 15.75V12.4359C18.6734 11.8594 17.75 10.5375 17.75 9.00001C17.75 6.92814 19.4281 5.25001 21.5 5.25001C23.5719 5.25001 25.25 6.92814 25.25 9.00001C25.25 10.5375 24.3266 11.8594 23 12.4359V15.75C23 20.3063 19.3062 24 14.75 24C10.3953 24 6.83281 20.6297 6.52344 16.3547C3.0875 15.6656 0.5 12.6375 0.5 9.00001V3.33282C0.5 2.04376 1.325 0.895323 2.55313 0.48751L3.77656 0.0796977C4.56406 -0.182802 5.4125 0.24376 5.675 1.02657ZM21.5 10.5C21.8978 10.5 22.2794 10.342 22.5607 10.0607C22.842 9.77937 23 9.39784 23 9.00001C23 8.60219 22.842 8.22066 22.5607 7.93935C22.2794 7.65805 21.8978 7.50001 21.5 7.50001C21.1022 7.50001 20.7206 7.65805 20.4393 7.93935C20.158 8.22066 20 8.60219 20 9.00001C20 9.39784 20.158 9.77937 20.4393 10.0607C20.7206 10.342 21.1022 10.5 21.5 10.5Z" fill="#BFDBFE"/>
</svg>
