<svg width="25" height="24" viewBox="0 0 25 24" fill="none" xmlns="http://www.w3.org/2000/svg">
<path d="M24.5 7.5L24.4953 10.9031C24.4906 13.35 23.3703 15.6375 21.4953 17.1422C21.5 17.0531 21.5 16.9641 21.5 16.875V16.5C21.5 13.1344 19.7656 10.0031 16.9109 8.21719L14.0891 6.45469C13.6859 6.20157 13.25 6.06094 12.8094 6.01407L10.6578 2.2875C10.3484 1.74844 10.5312 1.05938 11.0703 0.750003C11.6094 0.440628 12.2984 0.623441 12.6078 1.1625L16.2641 7.49532C16.4187 7.7625 16.7656 7.85625 17.0328 7.70157C17.3 7.54688 17.3938 7.2 17.2391 6.93282L14.3328 1.89844C14.0234 1.35938 14.2062 0.670316 14.7453 0.360941C15.2844 0.0515658 15.9688 0.234378 16.2781 0.773441L19.4656 6.29532L21.4953 9.81094L21.5 7.5C21.5 6.67032 22.175 6 23 6C23.825 6 24.5 6.675 24.5 7.5ZM10.4328 4.14844L11.5859 6.14063C10.9344 6.35157 10.3484 6.78282 9.95938 7.40625C9.91719 7.47188 9.87969 7.54219 9.84219 7.6125L8.4875 5.26875C8.17812 4.72969 8.36094 4.04063 8.9 3.73125C9.43906 3.42188 10.1281 3.60469 10.4375 4.14375L10.4328 4.14844ZM8.25781 7.13438L9.51406 9.30938C9.54219 9.59063 9.6125 9.8625 9.71563 10.125H9.5H8.87656H7.39062L6.3125 8.25938C6.00313 7.72032 6.18594 7.03125 6.725 6.72188C7.26406 6.4125 7.95313 6.59532 8.2625 7.13438H8.25781ZM11.2297 8.20313C11.6703 7.5 12.5938 7.28907 13.2969 7.725L16.1188 9.4875C18.5328 11.0016 20 13.65 20 16.5V16.875C20 20.8078 16.8078 24 12.875 24H4.625C4.00156 24 3.5 23.4984 3.5 22.875C3.5 22.2516 4.00156 21.75 4.625 21.75H8.9375C9.24687 21.75 9.5 21.4969 9.5 21.1875C9.5 20.8781 9.24687 20.625 8.9375 20.625H3.125C2.50156 20.625 2 20.1234 2 19.5C2 18.8766 2.50156 18.375 3.125 18.375H8.9375C9.24687 18.375 9.5 18.1219 9.5 17.8125C9.5 17.5031 9.24687 17.25 8.9375 17.25H1.625C1.00156 17.25 0.5 16.7484 0.5 16.125C0.5 15.5016 1.00156 15 1.625 15H8.9375C9.24687 15 9.5 14.7469 9.5 14.4375C9.5 14.1281 9.24687 13.875 8.9375 13.875H3.125C2.50156 13.875 2 13.3734 2 12.75C2 12.1266 2.50156 11.625 3.125 11.625H9.5H13.8688L11.7031 10.2703C11 9.82969 10.7891 8.90625 11.225 8.20313H11.2297Z" fill="#F97316"/>
</svg>
