<svg width="24" height="24" viewBox="0 0 24 24" fill="none" xmlns="http://www.w3.org/2000/svg">
  <circle cx="12" cy="8" r="4" stroke="#a855f7" stroke-width="2" fill="#ddd6fe"/>
  <path d="M8 14c0-2 2-4 4-4s4 2 4 4v6c0 1-1 2-2 2h-4c-1 0-2-1-2-2v-6z" stroke="#a855f7" stroke-width="2" fill="#e9d5ff"/>
  <circle cx="10" cy="7" r="0.5" fill="#a855f7"/>
  <circle cx="14" cy="7" r="0.5" fill="#a855f7"/>
  <path d="M10 9c1 1 3 1 4 0" stroke="#a855f7" stroke-width="1" stroke-linecap="round"/>
  <path d="M6 6c0-1 1-2 2-2" stroke="#a855f7" stroke-width="1.5" stroke-linecap="round"/>
  <path d="M18 6c0-1-1-2-2-2" stroke="#a855f7" stroke-width="1.5" stroke-linecap="round"/>
</svg>