<svg width="15" height="24" viewBox="0 0 15 24" fill="none" xmlns="http://www.w3.org/2000/svg">
<g clip-path="url(#clip0_6_195)">
<g clip-path="url(#clip1_6_195)">
<path d="M7.49998 2.25C7.49998 1.65326 7.73703 1.08097 8.15899 0.65901C8.58094 0.237053 9.15324 0 9.74998 0C10.3467 0 10.919 0.237053 11.341 0.65901C11.7629 1.08097 12 1.65326 12 2.25C12 2.84674 11.7629 3.41903 11.341 3.84099C10.919 4.26295 10.3467 4.5 9.74998 4.5C9.15324 4.5 8.58094 4.26295 8.15899 3.84099C7.73703 3.41903 7.49998 2.84674 7.49998 2.25ZM5.92966 9.34219C5.88279 9.36094 5.8406 9.37969 5.79373 9.39844L5.41873 9.5625C4.64998 9.90469 4.05935 10.5562 3.79216 11.3531L3.67029 11.7188C3.40779 12.5063 2.55935 12.9281 1.77185 12.6656C0.984351 12.4031 0.562476 11.5547 0.824976 10.7672L0.946851 10.4016C1.48123 8.80312 2.66248 7.5 4.19998 6.81562L4.57498 6.65156C5.54998 6.22031 6.60466 5.99531 7.67341 5.99531C9.76404 5.99531 11.6484 7.25156 12.45 9.17813L13.1719 10.9078L14.175 11.4094C14.9156 11.7797 15.2156 12.6797 14.8453 13.4203C14.475 14.1609 13.575 14.4609 12.8344 14.0906L11.5781 13.4672C11.0953 13.2234 10.7156 12.8203 10.5093 12.3187L10.0594 11.2406L9.15466 14.3109L11.475 16.8422C11.7281 17.1187 11.9062 17.4516 12 17.8172L13.0781 22.1344C13.2797 22.9359 12.7922 23.7516 11.9859 23.9531C11.1797 24.1547 10.3687 23.6672 10.1672 22.8609L9.13591 18.7313L5.82185 15.1172C5.1281 14.3625 4.87029 13.3078 5.13279 12.3187L5.92498 9.34219H5.92966ZM3.22029 18.6562L4.39216 15.7313C4.4906 15.8719 4.6031 16.0031 4.72029 16.1344L6.6281 18.2156L5.94841 19.9125C5.83591 20.1937 5.66716 20.4516 5.45154 20.6672L2.55935 23.5594C1.97341 24.1453 1.02185 24.1453 0.435913 23.5594C-0.150024 22.9734 -0.150024 22.0219 0.435913 21.4359L3.22029 18.6562Z" fill="#10B981"/>
</g>
</g>
<defs>
<clipPath id="clip0_6_195">
<rect width="15" height="24" fill="white"/>
</clipPath>
<clipPath id="clip1_6_195">
<path d="M0 0H15V24H0V0Z" fill="white"/>
</clipPath>
</defs>
</svg>
