<svg width="25" height="24" viewBox="0 0 25 24" fill="none" xmlns="http://www.w3.org/2000/svg">
<path d="M8.7125 22.3406C8.25781 21.4969 8 20.5266 8 19.5C8 17.6109 8.89062 15.8344 10.4 14.7L13.4 12.45C13.7797 12.1688 14 11.7234 14 11.25V4.5H6.5V11.25C6.5 12.1922 6.05469 13.0828 5.3 13.65L2.3 15.9C1.16563 16.7484 0.5 18.0844 0.5 19.5C0.5 21.9844 2.51562 24 5 24C5.975 24 6.92188 23.6859 7.7 23.1L8.7125 22.3406ZM6.5 3H14V2.25C14 1.57031 14.1828 0.928125 14.5016 0.379688C14.1406 0.140625 13.7141 0 13.25 0H8.75C7.50781 0 6.5 1.00781 6.5 2.25V3ZM15.5 4.5V11.25C15.5 12.1922 15.0547 13.0828 14.3 13.65L11.3 15.9C10.1656 16.7484 9.5 18.0844 9.5 19.5C9.5 21.9844 11.5156 24 14 24C14.975 24 15.9219 23.6859 16.7 23.1L22.1 19.05C23.6094 17.9156 24.5 16.1391 24.5 14.25V4.5H15.5ZM24.5 3V2.25C24.5 1.00781 23.4922 0 22.25 0H17.75C16.5078 0 15.5 1.00781 15.5 2.25V3H24.5Z" fill="#14B8A6"/>
</svg>
